<svg xmlns="http://www.w3.org/2000/svg" width="295" height="281" viewBox="0 0 295 281" version="1.1"><path d="M 0 140.503 L 0 281.007 147.750 280.753 L 295.500 280.500 295.753 140.250 L 296.007 0 148.003 0 L 0 0 0 140.503 M 0.486 141 C 0.486 218.275, 0.605 249.888, 0.750 211.250 C 0.895 172.613, 0.895 109.388, 0.750 70.750 C 0.605 32.113, 0.486 63.725, 0.486 141 M 95 54.548 C 67.775 70.233, 44.717 83.847, 43.761 84.800 C 42.148 86.408, 42.018 90.850, 41.976 145.595 C 41.951 178.079, 42.188 205.327, 42.503 206.147 C 42.818 206.967, 49.471 211.359, 57.288 215.905 L 71.500 224.172 84.500 221.538 C 110.315 216.307, 115 213.655, 115 204.271 C 115 199.054, 114.756 198.545, 109.448 192.679 C 103.692 186.319, 96.557 173.484, 95.426 167.457 C 94.892 164.612, 94.039 163.669, 90.638 162.164 C 85.219 159.767, 80.707 154.505, 78.103 147.544 C 73.928 136.388, 76.143 126.768, 83.500 124.098 C 85.700 123.299, 87.600 122.588, 87.722 122.518 C 87.844 122.447, 88.660 116.114, 89.535 108.445 C 92.471 82.711, 94.357 77.762, 105.185 67.372 C 117.510 55.548, 129.665 51.501, 150.500 52.288 C 169.260 52.996, 178.131 56.442, 189.990 67.629 C 198.304 75.472, 200.421 78.680, 202.466 86.533 C 203.667 91.142, 207 117.108, 207 121.853 C 207 122.353, 209.054 123.280, 211.564 123.912 C 217.573 125.425, 219.453 129.425, 218.753 139.208 C 217.927 150.759, 211.964 159.997, 203.610 162.669 C 201.194 163.442, 200.362 164.659, 198.528 170.103 C 195.471 179.181, 191.753 185.651, 185.429 192.903 C 180.456 198.605, 180 199.536, 180 203.987 C 180 213.523, 184.387 216.031, 210.626 221.496 L 222.751 224.022 236.946 215.891 C 246.915 210.181, 251.417 207.033, 252.070 205.315 C 253.426 201.750, 253.292 89.735, 251.929 86.743 C 251.340 85.450, 250.102 83.926, 249.179 83.356 C 247.621 82.395, 197.380 53.476, 164 34.327 C 156.025 29.752, 148.375 26.013, 147 26.019 C 145.563 26.025, 123.457 38.153, 95 54.548 M 136.500 53.629 C 124.403 55.509, 114.646 60.255, 106.179 68.379 C 95.554 78.572, 94.006 82.330, 91.508 104 C 89.067 125.181, 89.501 123.788, 84.957 125.012 C 79.463 126.491, 77.477 129.846, 77.590 137.456 C 77.750 148.171, 83.638 157.871, 92.132 161.413 C 95.051 162.631, 95.893 163.615, 96.420 166.424 C 97.870 174.154, 105.068 186.238, 112.915 194.114 C 124.815 206.059, 136.023 210.661, 151.092 209.789 C 162.281 209.141, 172.974 203.805, 182.103 194.313 C 189.751 186.362, 193.445 180.397, 197.054 170.173 C 199.586 163, 199.824 162.702, 205.082 160.140 C 211.551 156.988, 215.446 151.376, 216.999 142.968 C 218.868 132.850, 216.066 125.026, 210.559 124.985 C 206.447 124.954, 205.937 123.649, 204.466 109.411 C 202.388 89.292, 200.570 81.913, 196.292 76.232 C 188.639 66.070, 178.719 59.061, 167 55.536 C 161.557 53.899, 142.452 52.705, 136.500 53.629 M 146.158 130 C 146.158 131.375, 146.385 131.938, 146.662 131.250 C 146.940 130.563, 146.940 129.438, 146.662 128.750 C 146.385 128.063, 146.158 128.625, 146.158 130 M 146.158 136 C 146.158 137.375, 146.385 137.938, 146.662 137.250 C 146.940 136.563, 146.940 135.438, 146.662 134.750 C 146.385 134.063, 146.158 134.625, 146.158 136 M 146.158 143 C 146.158 144.375, 146.385 144.938, 146.662 144.250 C 146.940 143.563, 146.940 142.438, 146.662 141.750 C 146.385 141.063, 146.158 141.625, 146.158 143 M 146.158 149 C 146.158 150.375, 146.385 150.938, 146.662 150.250 C 146.940 149.563, 146.940 148.438, 146.662 147.750 C 146.385 147.063, 146.158 147.625, 146.158 149 M 146.158 155 C 146.158 156.375, 146.385 156.938, 146.662 156.250 C 146.940 155.563, 146.940 154.438, 146.662 153.750 C 146.385 153.063, 146.158 153.625, 146.158 155 M 146.158 161 C 146.158 162.375, 146.385 162.938, 146.662 162.250 C 146.940 161.563, 146.940 160.438, 146.662 159.750 C 146.385 159.063, 146.158 159.625, 146.158 161 M 116.154 204.863 C 116.133 207.601, 115.527 210.794, 114.808 211.959 C 112.670 215.420, 104.388 218.616, 89.106 221.880 C 81.190 223.571, 74.565 225.102, 74.384 225.282 C 74.204 225.463, 76.406 226.968, 79.278 228.626 C 82.150 230.285, 95.300 237.871, 108.500 245.485 C 121.700 253.098, 135.200 260.888, 138.500 262.796 C 141.800 264.704, 145.625 266.276, 147 266.289 C 149.938 266.317, 220.451 226.006, 219.278 224.968 C 218.850 224.589, 214.450 223.520, 209.500 222.591 C 194.365 219.753, 186.111 216.970, 182.378 213.450 C 179.374 210.616, 179 209.683, 179 205.010 L 179 199.756 176.750 201.405 C 171.562 205.206, 160.437 209.914, 154.127 210.979 C 149.025 211.839, 145.714 211.835, 140.690 210.960 C 134.490 209.880, 123.342 205.145, 118.346 201.469 C 116.219 199.903, 116.192 199.944, 116.154 204.863" stroke="none" fill="#ffffff" fill-rule="evenodd"/></svg>